# xmcd CD database file
#
# Track frame offsets:
#	150
#	15277
#	29348
#	42930
#	53295
#	64643
#	78807
#	90175
#	108690
#	120101
#	134592
#
# Disc length: 2361 seconds
#
# Revision: 1
# Processed by: cddbd v1.5.2PL0 Copyright (c) Steve Scherf et al.
# Submitted via: CDex 1.70beta2
#
DISCID=7309370b
DTITLE=Nestor en Bloque - Un Poquito de Amor
DYEAR=1900
DGENRE=Salsa
TTITLE0=Una Madre Llorando
TTITLE1=Gracias Mamá
TTITLE2=Un Poquito de Amor
TTITLE3=Amigo Mio
TTITLE4=Llamala
TTITLE5=Dame una Oportunidad
TTITLE6=Tu Mujer en mi Cama
TTITLE7=Todo Ritmo (Duo con Pablo Lezcano)
TTITLE8=Tu Mujer en mi Cama (Remix)
TTITLE9=Un Poquito de Amor (Remix)
TTITLE10=Megamix 2008
EXTD=
EXTT0=
EXTT1=
EXTT2=
EXTT3=
EXTT4=
EXTT5=
EXTT6=
EXTT7=
EXTT8=
EXTT9=
EXTT10=
PLAYORDER=
